%TF.GenerationSoftware,KiCad,Pcbnew,(6.0.8-1)-1*%
%TF.CreationDate,2022-10-27T21:36:15-07:00*%
%TF.ProjectId,A4-box,41342d62-6f78-42e6-9b69-6361645f7063,rev?*%
%TF.SameCoordinates,Original*%
%TF.FileFunction,Profile,NP*%
%FSLAX46Y46*%
G04 Gerber Fmt 4.6, Leading zero omitted, Abs format (unit mm)*
G04 Created by KiCad (PCBNEW (6.0.8-1)-1) date 2022-10-27 21:36:15*
%MOMM*%
%LPD*%
G01*
G04 APERTURE LIST*
%TA.AperFunction,Profile*%
%ADD10C,0.100000*%
%TD*%
G04 APERTURE END LIST*
D10*
X44814625Y-34021302D02*
X43878533Y-34021302D01*
X44814383Y-40027684D02*
X44814625Y-34021302D01*
X43878483Y-40027684D02*
X44814383Y-40027684D01*
X43382933Y-40535003D02*
G75*
G03*
X42878591Y-40027684I-4438J499938D01*
G01*
X43374141Y-43529600D02*
X43374141Y-40535035D01*
X42878510Y-44029581D02*
G75*
G03*
X43382933Y-43529600I499985J16D01*
G01*
X43878533Y-44027684D02*
X43878537Y-44029581D01*
X44814383Y-44027684D02*
X43878533Y-44027684D01*
X44814625Y-47027883D02*
X44814383Y-44027684D01*
X24814625Y-47027883D02*
X44814625Y-47027883D01*
X24814625Y-44027684D02*
X24814625Y-47027883D01*
X25757411Y-44027684D02*
X24814625Y-44027684D01*
X26261803Y-43529602D02*
G75*
G03*
X26757403Y-44027684I-4398J-499983D01*
G01*
X26253011Y-40535035D02*
X26253011Y-43529600D01*
X26757330Y-40027684D02*
G75*
G03*
X26261803Y-40535035I-499935J-7381D01*
G01*
X24814625Y-40027684D02*
X25757461Y-40027684D01*
X24814625Y-34021302D02*
X24814625Y-40027684D01*
X25757411Y-34021302D02*
X24814625Y-34021302D01*
X26260618Y-33519413D02*
G75*
G03*
X26757403Y-34021302I-3213J-499992D01*
G01*
X26254196Y-30524869D02*
X26254196Y-33519417D01*
X26757396Y-30021302D02*
G75*
G03*
X26260618Y-30524869I-500001J-3563D01*
G01*
X24814625Y-30021302D02*
X25757420Y-30021302D01*
X24814625Y-27027883D02*
X24814625Y-30021302D01*
X44814625Y-27027883D02*
X24814625Y-27027883D01*
X44814625Y-30021302D02*
X44814625Y-27027883D01*
X43878524Y-30021302D02*
X44814625Y-30021302D01*
X43381748Y-30524812D02*
G75*
G03*
X42878550Y-30021302I-3253J499947D01*
G01*
X43375326Y-33519417D02*
X43375326Y-30524869D01*
X42878540Y-34021302D02*
G75*
G03*
X43381748Y-33519417I499955J1937D01*
G01*
X74575377Y-34021302D02*
X73639285Y-34021302D01*
X74575135Y-40027684D02*
X74575377Y-34021302D01*
X73639234Y-40027684D02*
X74575135Y-40027684D01*
X73143684Y-40535052D02*
G75*
G03*
X72639343Y-40027684I-4389J499987D01*
G01*
X73134893Y-43529600D02*
X73134893Y-40535035D01*
X72639311Y-44029581D02*
G75*
G03*
X73143684Y-43529600I499984J16D01*
G01*
X73639285Y-44027684D02*
X73639289Y-44029581D01*
X74575135Y-44027684D02*
X73639285Y-44027684D01*
X74575377Y-47027883D02*
X74575135Y-44027684D01*
X54575377Y-47027883D02*
X74575377Y-47027883D01*
X54575377Y-44027684D02*
X54575377Y-47027883D01*
X55518163Y-44027684D02*
X54575377Y-44027684D01*
X56022555Y-43529620D02*
G75*
G03*
X56518155Y-44027684I-4360J-499945D01*
G01*
X56013763Y-40535035D02*
X56013763Y-43529600D01*
X56518130Y-40027684D02*
G75*
G03*
X56022555Y-40535035I-499935J-7381D01*
G01*
X54575377Y-40027684D02*
X55518213Y-40027684D01*
X54575377Y-34021302D02*
X54575377Y-40027684D01*
X55518163Y-34021302D02*
X54575377Y-34021302D01*
X56021370Y-33519411D02*
G75*
G03*
X56518155Y-34021302I-3175J-499954D01*
G01*
X56014948Y-30524869D02*
X56014948Y-33519417D01*
X56518196Y-30021302D02*
G75*
G03*
X56021370Y-30524869I-500001J-3563D01*
G01*
X54575377Y-30021302D02*
X55518172Y-30021302D01*
X54575377Y-27027883D02*
X54575377Y-30021302D01*
X74575377Y-27027883D02*
X54575377Y-27027883D01*
X74575377Y-30021302D02*
X74575377Y-27027883D01*
X73639276Y-30021302D02*
X74575377Y-30021302D01*
X73142500Y-30524861D02*
G75*
G03*
X72639302Y-30021302I-3205J499996D01*
G01*
X73136078Y-33519417D02*
X73136078Y-30524869D01*
X72639341Y-34021302D02*
G75*
G03*
X73142500Y-33519417I499954J1937D01*
G01*
X25279434Y-57780002D02*
G75*
G03*
X24781588Y-58326140I-497839J-46163D01*
G01*
X23340551Y-57780000D02*
X24283721Y-57780000D01*
X23340551Y-53980000D02*
X23340551Y-57780000D01*
X24281593Y-53980000D02*
X23340551Y-53980000D01*
X24781588Y-53482121D02*
G75*
G03*
X25281584Y-53980000I-3J-500004D01*
G01*
X24781588Y-50886582D02*
X24781588Y-53482121D01*
X44781588Y-50886582D02*
X24781588Y-50886582D01*
X44781588Y-53483206D02*
X44781588Y-50886582D01*
X44314451Y-53982121D02*
G75*
G03*
X44847415Y-53483206I500044J-44D01*
G01*
X45314497Y-53980000D02*
X45314501Y-53982121D01*
X46222625Y-53980000D02*
X45314497Y-53980000D01*
X46222625Y-57780000D02*
X46222625Y-53980000D01*
X45312368Y-57780000D02*
X46222625Y-57780000D01*
X44847416Y-58325076D02*
G75*
G03*
X44316635Y-57780000I-32921J498911D01*
G01*
X44781588Y-63505781D02*
X44781588Y-58325055D01*
X44314526Y-64004696D02*
G75*
G03*
X44847415Y-63505781I499969J31D01*
G01*
X45314166Y-63986382D02*
X45314501Y-64004696D01*
X46223810Y-63986382D02*
X45314166Y-63986382D01*
X46223810Y-67786382D02*
X46223810Y-63986382D01*
X45310601Y-67786382D02*
X46223810Y-67786382D01*
X44847415Y-68347635D02*
G75*
G03*
X44318402Y-67786382I-32910J498920D01*
G01*
X44781588Y-70886582D02*
X44781588Y-68347630D01*
X24781588Y-70886582D02*
X44781588Y-70886582D01*
X24781588Y-68348714D02*
X24781588Y-70886582D01*
X25277749Y-67786374D02*
G75*
G03*
X24781588Y-68348714I-496154J-62291D01*
G01*
X23339366Y-67786382D02*
X24285489Y-67786382D01*
X23339366Y-63986382D02*
X23339366Y-67786382D01*
X24281924Y-63986382D02*
X23339366Y-63986382D01*
X24781588Y-63504692D02*
G75*
G03*
X25281253Y-63986382I-3J-500003D01*
G01*
X24781588Y-58326140D02*
X24781588Y-63504696D01*
X55278835Y-57780006D02*
G75*
G03*
X54781037Y-58326140I-497840J-46159D01*
G01*
X53340000Y-57780000D02*
X54283171Y-57780000D01*
X53340000Y-53980000D02*
X53340000Y-57780000D01*
X54281042Y-53980000D02*
X53340000Y-53980000D01*
X54781037Y-53482122D02*
G75*
G03*
X55281033Y-53980000I-42J-500043D01*
G01*
X54781037Y-50886582D02*
X54781037Y-53482121D01*
X74781037Y-50886582D02*
X54781037Y-50886582D01*
X74781037Y-53483206D02*
X74781037Y-50886582D01*
X74313955Y-53982121D02*
G75*
G03*
X74846864Y-53483206I500040J-44D01*
G01*
X75313946Y-53980000D02*
X75313951Y-53982121D01*
X76222075Y-53980000D02*
X75313946Y-53980000D01*
X76222075Y-57780000D02*
X76222075Y-53980000D01*
X75311817Y-57780000D02*
X76222075Y-57780000D01*
X74846869Y-58325130D02*
G75*
G03*
X74316084Y-57780000I-32874J498965D01*
G01*
X74781037Y-63505781D02*
X74781037Y-58325055D01*
X74314029Y-64004696D02*
G75*
G03*
X74846864Y-63505781I499966J31D01*
G01*
X75313615Y-63986382D02*
X75313951Y-64004696D01*
X76223259Y-63986382D02*
X75313615Y-63986382D01*
X76223259Y-67786382D02*
X76223259Y-63986382D01*
X75310050Y-67786382D02*
X76223259Y-67786382D01*
X74846863Y-68347622D02*
G75*
G03*
X74317851Y-67786382I-32868J498957D01*
G01*
X74781037Y-70886582D02*
X74781037Y-68347630D01*
X54781037Y-70886582D02*
X74781037Y-70886582D01*
X54781037Y-68348714D02*
X54781037Y-70886582D01*
X55277150Y-67786380D02*
G75*
G03*
X54781037Y-68348714I-496155J-62285D01*
G01*
X53338816Y-67786382D02*
X54284938Y-67786382D01*
X53338816Y-63986382D02*
X53338816Y-67786382D01*
X54281373Y-63986382D02*
X53338816Y-63986382D01*
X54781037Y-63504624D02*
G75*
G03*
X55280702Y-63986382I-42J-500041D01*
G01*
X54781037Y-58326140D02*
X54781037Y-63504696D01*
M02*
